<svg version="1.1" id="Layer_1" xmlns="http://www.w3.org/2000/svg" xmlns:xlink="http://www.w3.org/1999/xlink" x="0px" y="0px"
	 width="100%" viewBox="0 0 1024 1024" enable-background="new 0 0 1024 1024" xml:space="preserve">
<path fill="#000000" opacity="1.000000" stroke="none" 
	d="
M798.791809,655.821045 
	C778.316589,672.409241 754.851868,680.418884 729.322205,683.271729 
	C706.766052,685.792236 684.559692,683.513123 663.423035,675.757446 
	C630.846497,663.804077 606.863892,641.908691 592.942627,609.707153 
	C580.609619,581.179321 576.316895,551.404358 578.508728,520.435791 
	C580.273560,495.500275 585.807312,471.725616 598.057068,449.833069 
	C613.961975,421.408295 637.426819,401.521423 668.559753,392.082245 
	C699.021912,382.846405 730.110596,382.449829 760.489563,392.717194 
	C798.879883,405.692108 824.573486,432.106567 838.608521,470.022125 
	C846.557861,491.497131 850.304382,513.801575 849.839478,536.553223 
	C849.330383,561.468933 845.626709,586.029541 835.034424,608.943726 
	C826.613586,627.160583 814.904907,643.011169 798.791809,655.821045 
M782.708252,564.316223 
	C787.384949,537.290833 786.178650,510.850494 776.439514,484.838196 
	C763.355652,449.892639 726.801147,433.743866 692.205872,444.386078 
	C667.278442,452.054230 653.434998,470.591797 646.630249,494.591003 
	C640.000916,517.971375 639.679565,541.791504 644.304688,565.744080 
	C650.631897,598.510925 671.462280,623.672913 704.691406,627.241211 
	C728.666260,629.815735 749.112183,622.906433 765.015808,604.389771 
	C774.710938,593.101685 779.474976,579.466553 782.708252,564.316223 
z"/>
<path fill="#000000" opacity="1.000000" stroke="none" 
	d="
M330.093872,416.030273 
	C346.544891,463.231415 362.968445,510.030884 379.185883,556.901672 
	C392.790802,596.221741 406.117798,635.638000 419.677673,674.973816 
	C421.217651,679.441101 419.412689,680.169128 415.543213,680.079285 
	C402.392426,679.774048 389.238434,679.555359 376.084534,679.463257 
	C370.263092,679.422485 364.437317,679.722656 358.616638,679.947998 
	C355.044800,680.086304 353.181824,678.311890 352.121033,675.028076 
	C346.343597,657.142273 340.374664,639.317749 334.693878,621.401733 
	C333.115875,616.424988 330.524963,614.071533 325.032471,614.103210 
	C295.204987,614.275452 265.375580,614.242249 235.547821,614.088928 
	C231.475555,614.068054 229.609497,615.601685 228.426453,619.351624 
	C222.767212,637.289734 216.748917,655.115723 211.211029,673.090210 
	C209.708496,677.967163 207.760666,679.872375 202.205505,679.760010 
	C184.567886,679.403015 166.913345,679.898987 149.265091,680.030457 
	C146.995056,680.047363 144.588791,680.645996 142.280380,678.716064 
	C143.131912,672.372498 146.098099,666.532837 148.157669,660.483826 
	C158.500351,630.107117 169.265457,599.874634 179.729141,569.538635 
	C193.836655,528.638550 207.782394,487.682648 221.842560,446.766174 
	C227.847672,429.290710 234.052078,411.883240 239.968567,394.378174 
	C241.317841,390.386108 243.588318,389.033691 247.687897,389.050659 
	C270.169769,389.143738 292.652802,389.068848 315.134796,388.942505 
	C319.174622,388.919830 321.506775,390.217133 322.719208,394.410614 
	C324.795685,401.592682 327.523041,408.586548 330.093872,416.030273 
M274.748138,476.105377 
	C266.078522,502.662415 257.427795,529.225647 248.727203,555.772522 
	C246.288101,563.214600 246.669922,563.829468 254.315277,563.828186 
	C272.128723,563.825195 289.942200,563.830383 307.755646,563.840393 
	C315.089661,563.844482 316.196472,562.504456 313.934906,555.652344 
	C303.876190,525.176086 293.741821,494.724701 283.657410,464.256866 
	C283.217926,462.929077 282.752441,461.591187 281.194763,461.489563 
	C279.266357,461.363861 278.842255,462.949097 278.396637,464.422607 
	C277.291321,468.077362 276.152557,471.722015 274.748138,476.105377 
z"/>
<path fill="#000000" opacity="1.000000" stroke="none" 
	d="
M561.061707,454.000092 
	C561.037415,491.642242 561.154907,528.785217 560.930359,565.926147 
	C560.812866,585.358765 561.389893,604.853149 557.204346,624.063477 
	C553.445862,641.313477 546.273804,656.479126 532.155518,667.749634 
	C520.294128,677.218567 506.268280,681.014160 491.672974,683.319336 
	C473.658447,686.164490 455.901093,684.436707 438.290985,680.203308 
	C435.828247,679.611267 433.889496,678.658630 433.893066,675.685425 
	C433.912415,659.532715 433.908966,643.379944 433.944397,627.227295 
	C433.945404,626.774109 434.294617,626.321716 434.635620,625.495300 
	C440.433411,625.939392 445.611725,628.805603 451.174011,630.170532 
	C459.227539,632.146912 467.347656,632.486511 475.457275,631.502197 
	C489.064606,629.850464 498.234558,619.277344 499.733917,605.099121 
	C501.280029,590.478760 499.999451,575.865173 500.298706,561.251709 
	C500.711029,541.119141 500.422363,520.972900 500.508331,500.832794 
	C500.650391,467.548309 500.848053,434.264099 501.037231,400.979858 
	C501.049530,398.818970 501.057159,396.643677 501.302155,394.502014 
	C501.631500,391.622162 503.325195,390.037964 506.306824,389.984894 
	C522.786804,389.691528 539.267456,389.428833 555.746277,389.080994 
	C560.007996,388.991089 561.033142,391.203918 561.017456,395.040771 
	C560.937927,414.526825 561.029663,434.013550 561.061707,454.000092 
z"/>
<path fill="#000000" opacity="1.000000" stroke="none" 
	d="
M724.416199,345.573853 
	C721.653015,342.430115 719.018799,339.638672 716.605225,336.668030 
	C714.026794,333.494629 711.908508,333.738556 709.390625,336.826172 
	C703.500488,344.049408 697.165833,350.923950 691.519348,358.327271 
	C687.570374,363.504822 683.062012,366.003418 676.431885,365.789398 
	C662.785522,365.348877 649.121155,365.468842 635.464661,365.320129 
	C634.510010,365.309784 633.558716,364.986938 632.191345,364.732208 
	C633.427734,360.415161 636.862915,358.051941 639.408081,355.209137 
	C654.963501,337.834839 670.727356,320.647369 686.355469,303.337799 
	C688.293823,301.190857 690.467468,300.120575 693.327026,300.123169 
	C706.633240,300.135101 719.939514,300.114227 733.245605,300.064758 
	C735.737183,300.055481 737.673584,300.892670 739.380310,302.785126 
	C756.890930,322.201050 774.464172,341.560577 791.986877,360.965698 
	C792.936829,362.017670 794.418762,362.822357 794.285156,364.951172 
	C787.955139,366.261871 781.510376,365.277832 775.130310,365.402130 
	C764.979553,365.600006 754.820618,365.346039 744.666626,365.440613 
	C742.126526,365.464233 740.395264,364.821594 738.740479,362.720245 
	C734.207947,356.964539 729.363342,351.454529 724.416199,345.573853 
z"/>
</svg>